<svg width="63" height="13" viewBox="0 0 63 13" fill="none" xmlns="http://www.w3.org/2000/svg">
<path d="M6.82812 0.625H8.32812V8.32031C8.32812 9.17448 8.13802 9.88542 7.75781 10.4531C7.3776 11.0208 6.8724 11.4479 6.24219 11.7344C5.61719 12.0156 4.9375 12.1562 4.20312 12.1562C3.43229 12.1562 2.73438 12.0156 2.10938 11.7344C1.48958 11.4479 0.997396 11.0208 0.632812 10.4531C0.273438 9.88542 0.09375 9.17448 0.09375 8.32031V0.625H1.58594V8.32031C1.58594 8.91406 1.69531 9.40365 1.91406 9.78906C2.13281 10.1745 2.4375 10.4609 2.82812 10.6484C3.22396 10.8359 3.68229 10.9297 4.20312 10.9297C4.72917 10.9297 5.1875 10.8359 5.57812 10.6484C5.97396 10.4609 6.28125 10.1745 6.5 9.78906C6.71875 9.40365 6.82812 8.91406 6.82812 8.32031V0.625ZM10.4688 0H11.9219V10.3594L11.7969 12H10.4688V0ZM17.6328 7.70312V7.86719C17.6328 8.48177 17.5599 9.05208 17.4141 9.57812C17.2682 10.099 17.0547 10.5521 16.7734 10.9375C16.4922 11.3229 16.1484 11.6224 15.7422 11.8359C15.3359 12.0495 14.8698 12.1562 14.3438 12.1562C13.8073 12.1562 13.3359 12.0651 12.9297 11.8828C12.5286 11.6953 12.1901 11.4271 11.9141 11.0781C11.638 10.7292 11.4167 10.3073 11.25 9.8125C11.0885 9.31771 10.9766 8.76042 10.9141 8.14062V7.42188C10.9766 6.79688 11.0885 6.23698 11.25 5.74219C11.4167 5.2474 11.638 4.82552 11.9141 4.47656C12.1901 4.1224 12.5286 3.85417 12.9297 3.67188C13.3307 3.48438 13.7969 3.39062 14.3281 3.39062C14.8594 3.39062 15.3307 3.49479 15.7422 3.70312C16.1536 3.90625 16.4974 4.19792 16.7734 4.57812C17.0547 4.95833 17.2682 5.41406 17.4141 5.94531C17.5599 6.47135 17.6328 7.05729 17.6328 7.70312ZM16.1797 7.86719V7.70312C16.1797 7.28125 16.1406 6.88542 16.0625 6.51562C15.9844 6.14062 15.8594 5.8125 15.6875 5.53125C15.5156 5.24479 15.2891 5.02083 15.0078 4.85938C14.7266 4.69271 14.3802 4.60938 13.9688 4.60938C13.6042 4.60938 13.2865 4.67188 13.0156 4.79688C12.75 4.92188 12.5234 5.09115 12.3359 5.30469C12.1484 5.51302 11.9948 5.7526 11.875 6.02344C11.7604 6.28906 11.6745 6.5651 11.6172 6.85156V8.73438C11.7005 9.09896 11.8359 9.45052 12.0234 9.78906C12.2161 10.1224 12.4714 10.3958 12.7891 10.6094C13.112 10.8229 13.5104 10.9297 13.9844 10.9297C14.375 10.9297 14.7083 10.8516 14.9844 10.6953C15.2656 10.5339 15.4922 10.3125 15.6641 10.0312C15.8411 9.75 15.9714 9.42448 16.0547 9.05469C16.138 8.6849 16.1797 8.28906 16.1797 7.86719ZM22.9688 12.1562C22.3802 12.1562 21.8464 12.0573 21.3672 11.8594C20.8932 11.6562 20.4844 11.3724 20.1406 11.0078C19.8021 10.6432 19.5417 10.2109 19.3594 9.71094C19.1771 9.21094 19.0859 8.66406 19.0859 8.07031V7.74219C19.0859 7.05469 19.1875 6.44271 19.3906 5.90625C19.5938 5.36458 19.8698 4.90625 20.2188 4.53125C20.5677 4.15625 20.9635 3.8724 21.4062 3.67969C21.849 3.48698 22.3073 3.39062 22.7812 3.39062C23.3854 3.39062 23.9062 3.49479 24.3438 3.70312C24.7865 3.91146 25.1484 4.20312 25.4297 4.57812C25.7109 4.94792 25.9193 5.38542 26.0547 5.89062C26.1901 6.39062 26.2578 6.9375 26.2578 7.53125V8.17969H19.9453V7H24.8125V6.89062C24.7917 6.51562 24.7135 6.15104 24.5781 5.79688C24.4479 5.44271 24.2396 5.15104 23.9531 4.92188C23.6667 4.69271 23.276 4.57812 22.7812 4.57812C22.4531 4.57812 22.151 4.64844 21.875 4.78906C21.599 4.92448 21.362 5.1276 21.1641 5.39844C20.9661 5.66927 20.8125 6 20.7031 6.39062C20.5938 6.78125 20.5391 7.23177 20.5391 7.74219V8.07031C20.5391 8.47135 20.5938 8.84896 20.7031 9.20312C20.8177 9.55208 20.9818 9.85938 21.1953 10.125C21.4141 10.3906 21.6771 10.599 21.9844 10.75C22.2969 10.901 22.651 10.9766 23.0469 10.9766C23.5573 10.9766 23.9896 10.8724 24.3438 10.6641C24.6979 10.4557 25.0078 10.1771 25.2734 9.82812L26.1484 10.5234C25.9661 10.7995 25.7344 11.0625 25.4531 11.3125C25.1719 11.5625 24.8255 11.7656 24.4141 11.9219C24.0078 12.0781 23.526 12.1562 22.9688 12.1562ZM29.3906 4.875V12H27.9453V3.54688H29.3516L29.3906 4.875ZM32.0312 3.5L32.0234 4.84375C31.9036 4.81771 31.7891 4.80208 31.6797 4.79688C31.5755 4.78646 31.4557 4.78125 31.3203 4.78125C30.987 4.78125 30.6927 4.83333 30.4375 4.9375C30.1823 5.04167 29.9661 5.1875 29.7891 5.375C29.612 5.5625 29.4714 5.78646 29.3672 6.04688C29.2682 6.30208 29.2031 6.58333 29.1719 6.89062L28.7656 7.125C28.7656 6.61458 28.8151 6.13542 28.9141 5.6875C29.0182 5.23958 29.1771 4.84375 29.3906 4.5C29.6042 4.15104 29.875 3.88021 30.2031 3.6875C30.5365 3.48958 30.9323 3.39062 31.3906 3.39062C31.4948 3.39062 31.6146 3.40365 31.75 3.42969C31.8854 3.45052 31.9792 3.47396 32.0312 3.5ZM40.8125 10.7734V12H34.7891V10.7734H40.8125ZM35.0938 0.625V12H33.5859V0.625H35.0938ZM40.0156 5.51562V6.74219H34.7891V5.51562H40.0156ZM40.7344 0.625V1.85938H34.7891V0.625H40.7344ZM47.4453 10.5547V6.20312C47.4453 5.86979 47.3776 5.58073 47.2422 5.33594C47.112 5.08594 46.9141 4.89323 46.6484 4.75781C46.3828 4.6224 46.0547 4.55469 45.6641 4.55469C45.2995 4.55469 44.9792 4.61719 44.7031 4.74219C44.4323 4.86719 44.2188 5.03125 44.0625 5.23438C43.9115 5.4375 43.8359 5.65625 43.8359 5.89062H42.3906C42.3906 5.58854 42.4688 5.28906 42.625 4.99219C42.7812 4.69531 43.0052 4.42708 43.2969 4.1875C43.5938 3.94271 43.9479 3.75 44.3594 3.60938C44.776 3.46354 45.2396 3.39062 45.75 3.39062C46.3646 3.39062 46.9062 3.49479 47.375 3.70312C47.849 3.91146 48.2188 4.22656 48.4844 4.64844C48.7552 5.0651 48.8906 5.58854 48.8906 6.21875V10.1562C48.8906 10.4375 48.9141 10.737 48.9609 11.0547C49.013 11.3724 49.0885 11.6458 49.1875 11.875V12H47.6797C47.6068 11.8333 47.5495 11.612 47.5078 11.3359C47.4661 11.0547 47.4453 10.7943 47.4453 10.5547ZM47.6953 6.875L47.7109 7.89062H46.25C45.8385 7.89062 45.4714 7.92448 45.1484 7.99219C44.8255 8.05469 44.5547 8.15104 44.3359 8.28125C44.1172 8.41146 43.9505 8.57552 43.8359 8.77344C43.7214 8.96615 43.6641 9.19271 43.6641 9.45312C43.6641 9.71875 43.724 9.96094 43.8438 10.1797C43.9635 10.3984 44.1432 10.5729 44.3828 10.7031C44.6276 10.8281 44.9271 10.8906 45.2812 10.8906C45.724 10.8906 46.1146 10.7969 46.4531 10.6094C46.7917 10.4219 47.0599 10.1927 47.2578 9.92188C47.4609 9.65104 47.5703 9.38802 47.5859 9.13281L48.2031 9.82812C48.1667 10.0469 48.0677 10.2891 47.9062 10.5547C47.7448 10.8203 47.5286 11.0755 47.2578 11.3203C46.9922 11.5599 46.6745 11.7604 46.3047 11.9219C45.9401 12.0781 45.5286 12.1562 45.0703 12.1562C44.4974 12.1562 43.9948 12.0443 43.5625 11.8203C43.1354 11.5964 42.8021 11.2969 42.5625 10.9219C42.3281 10.5417 42.2109 10.1172 42.2109 9.64844C42.2109 9.19531 42.2995 8.79688 42.4766 8.45312C42.6536 8.10417 42.9089 7.8151 43.2422 7.58594C43.5755 7.35156 43.9766 7.17448 44.4453 7.05469C44.9141 6.9349 45.4375 6.875 46.0156 6.875H47.6953ZM54.7031 3.54688V4.65625H50.1328V3.54688H54.7031ZM51.6797 1.49219H53.125V9.90625C53.125 10.1927 53.1693 10.4089 53.2578 10.5547C53.3464 10.7005 53.4609 10.7969 53.6016 10.8438C53.7422 10.8906 53.8932 10.9141 54.0547 10.9141C54.1745 10.9141 54.2995 10.9036 54.4297 10.8828C54.5651 10.8568 54.6667 10.8359 54.7344 10.8203L54.7422 12C54.6276 12.0365 54.4766 12.0703 54.2891 12.1016C54.1068 12.138 53.8854 12.1562 53.625 12.1562C53.2708 12.1562 52.9453 12.0859 52.6484 11.9453C52.3516 11.8047 52.1146 11.5703 51.9375 11.2422C51.7656 10.9089 51.6797 10.4609 51.6797 9.89844V1.49219ZM61.3203 9.75781C61.3203 9.54948 61.2734 9.35677 61.1797 9.17969C61.0911 8.9974 60.9062 8.83333 60.625 8.6875C60.349 8.53646 59.9323 8.40625 59.375 8.29688C58.9062 8.19792 58.4818 8.08073 58.1016 7.94531C57.7266 7.8099 57.4062 7.64583 57.1406 7.45312C56.8802 7.26042 56.6797 7.03385 56.5391 6.77344C56.3984 6.51302 56.3281 6.20833 56.3281 5.85938C56.3281 5.52604 56.401 5.21094 56.5469 4.91406C56.6979 4.61719 56.9089 4.35417 57.1797 4.125C57.4557 3.89583 57.7865 3.71615 58.1719 3.58594C58.5573 3.45573 58.987 3.39062 59.4609 3.39062C60.138 3.39062 60.7161 3.51042 61.1953 3.75C61.6745 3.98958 62.0417 4.3099 62.2969 4.71094C62.5521 5.10677 62.6797 5.54688 62.6797 6.03125H61.2344C61.2344 5.79688 61.1641 5.57031 61.0234 5.35156C60.888 5.1276 60.6875 4.94271 60.4219 4.79688C60.1615 4.65104 59.8411 4.57812 59.4609 4.57812C59.0599 4.57812 58.7344 4.64062 58.4844 4.76562C58.2396 4.88542 58.0599 5.03906 57.9453 5.22656C57.8359 5.41406 57.7812 5.61198 57.7812 5.82031C57.7812 5.97656 57.8073 6.11719 57.8594 6.24219C57.9167 6.36198 58.0156 6.47396 58.1562 6.57812C58.2969 6.67708 58.4948 6.77083 58.75 6.85938C59.0052 6.94792 59.3307 7.03646 59.7266 7.125C60.4193 7.28125 60.9896 7.46875 61.4375 7.6875C61.8854 7.90625 62.2188 8.17448 62.4375 8.49219C62.6562 8.8099 62.7656 9.19531 62.7656 9.64844C62.7656 10.0182 62.6875 10.3568 62.5312 10.6641C62.3802 10.9714 62.1589 11.237 61.8672 11.4609C61.5807 11.6797 61.237 11.8516 60.8359 11.9766C60.4401 12.0964 59.9948 12.1562 59.5 12.1562C58.7552 12.1562 58.125 12.0234 57.6094 11.7578C57.0938 11.4922 56.7031 11.1484 56.4375 10.7266C56.1719 10.3047 56.0391 9.85938 56.0391 9.39062H57.4922C57.513 9.78646 57.6276 10.1016 57.8359 10.3359C58.0443 10.5651 58.2995 10.7292 58.6016 10.8281C58.9036 10.9219 59.2031 10.9688 59.5 10.9688C59.8958 10.9688 60.2266 10.9167 60.4922 10.8125C60.763 10.7083 60.9688 10.5651 61.1094 10.3828C61.25 10.2005 61.3203 9.99219 61.3203 9.75781Z" fill="white"/>
</svg>
